<svg xmlns="http://www.w3.org/2000/svg">
    <symbol id="login" viewBox="0 0 24 24">
        <path fill-rule="evenodd"
              d="M6.75 2.25C4.67893 2.25 3 3.92893 3 6V18C3 20.0711 4.67893 21.75 6.75 21.75H12.75C14.8211 21.75 16.5 20.0711 16.5 18V17C16.5 16.5858 16.1642 16.25 15.75 16.25C15.3358 16.25 15 16.5858 15 17V18C15 19.2426 13.9926 20.25 12.75 20.25H6.75C5.50736 20.25 4.5 19.2426 4.5 18V6C4.5 4.75736 5.50736 3.75 6.75 3.75H12.75C13.9926 3.75 15 4.75736 15 6V7C15 7.41421 15.3358 7.75 15.75 7.75C16.1642 7.75 16.5 7.41421 16.5 7V6C16.5 3.92893 14.8211 2.25 12.75 2.25H6.75ZM11.7803 9.53033C12.0732 9.23744 12.0732 8.76256 11.7803 8.46967C11.4874 8.17678 11.0126 8.17678 10.7197 8.46967L7.71967 11.4697C7.42678 11.7626 7.42678 12.2374 7.71967 12.5303L10.7197 15.5303C11.0126 15.8232 11.4874 15.8232 11.7803 15.5303C12.0732 15.2374 12.0732 14.7626 11.7803 14.4697L10.0607 12.75H20.25C20.6642 12.75 21 12.4142 21 12C21 11.5858 20.6642 11.25 20.25 11.25H10.0607L11.7803 9.53033Z"
              fill="currentColor"/>
    </symbol>
    <symbol id="checkbox-active" viewBox="0 0 100 100">
        <path fill="#a1d3a2"
              d="M80.961,44.307v25c0,6.6-5.4,12-12,12h-39c-6.6,0-12-5.4-12-12v-39c0-6.6,5.4-12,12-12h39c6.6,0,12,5.4,12,12"/>
        <path fill="#1f212b"
              d="M68.961,82.307h-39c-7.168,0-13-5.832-13-13v-39c0-7.168,5.832-13,13-13h39c7.168,0,13,5.832,13,13c0,0.552-0.448,1-1,1s-1-0.448-1-1c0-6.065-4.935-11-11-11h-39c-6.065,0-11,4.935-11,11v39c0,6.065,4.935,11,11,11h39c6.065,0,11-4.935,11-11v-25c0-0.552,0.448-1,1-1s1,0.448,1,1v25C81.961,76.476,76.129,82.307,68.961,82.307z"/>
        <path fill="#a1d3a2"
              d="M76.461,62.807v3.663c0,5.685-4.652,10.337-10.337,10.337H32.798c-5.685,0-10.337-4.652-10.337-10.337V33.144c0-5.685,4.652-10.337,10.337-10.337h33.663"/>
        <path fill="#1f212b"
              d="M66.124,77.307H32.798c-5.976,0-10.837-4.861-10.837-10.837V33.144c0-5.976,4.861-10.837,10.837-10.837h33.663c0.276,0,0.5,0.224,0.5,0.5s-0.224,0.5-0.5,0.5H32.798c-5.424,0-9.837,4.413-9.837,9.837V66.47c0,5.424,4.413,9.837,9.837,9.837h33.326c5.424,0,9.837-4.413,9.837-9.837v-3.663c0-0.276,0.224-0.5,0.5-0.5s0.5,0.224,0.5,0.5v3.663C76.961,72.446,72.099,77.307,66.124,77.307z"/>
        <path fill="#1f212b"
              d="M76.461 61.307c-.276 0-.5-.224-.5-.5v-4c0-.276.224-.5.5-.5s.5.224.5.5v4C76.961 61.083 76.737 61.307 76.461 61.307zM76.461 55.307c-.276 0-.5-.224-.5-.5v-2c0-.276.224-.5.5-.5s.5.224.5.5v2C76.961 55.083 76.737 55.307 76.461 55.307z"/>
        <path fill="#00ac9c"
              d="M85.211,33.758L50.957,67.947c-0.108,0.11-0.233,0.186-0.364,0.247c-0.048,0.024-0.095,0.044-0.145,0.062c-0.085,0.028-0.172,0.043-0.26,0.054c-0.064,0.009-0.122,0.039-0.188,0.039c-0.071,0-0.131-0.03-0.199-0.041c-0.005-0.001-0.011,0-0.016-0.001c-0.416,0.068-0.854-0.036-1.173-0.359L37.104,56.275c-0.527-0.535-0.527-1.41,0-1.946c0.527-0.535,1.391-0.535,1.918,0l10.409,11.055l33.861-33.572c0.527-0.535,1.391-0.535,1.918,0C85.738,32.348,85.738,33.223,85.211,33.758z"/>
        <path fill="#1f212b"
              d="M84.252,31.412c0.348,0,0.695,0.134,0.959,0.401c0.527,0.535,0.527,1.41,0,1.945L50.957,67.947c-0.108,0.11-0.233,0.186-0.364,0.247c-0.048,0.024-0.095,0.044-0.145,0.062c-0.085,0.028-0.172,0.043-0.26,0.054c-0.064,0.009-0.122,0.039-0.188,0.039c-0.071,0-0.131-0.03-0.199-0.041c-0.005-0.001-0.011,0-0.016-0.001c-0.08,0.013-0.161,0.02-0.242,0.02c-0.339,0-0.674-0.118-0.931-0.379L37.104,56.275c-0.527-0.535-0.527-1.41,0-1.945c0.264-0.267,0.611-0.401,0.959-0.401s0.695,0.134,0.959,0.401l10.409,11.055l33.861-33.572C83.556,31.545,83.904,31.412,84.252,31.412 M84.252,30.412c-0.633,0-1.227,0.248-1.671,0.699L49.456,63.952l-9.705-10.308c-0.46-0.467-1.054-0.716-1.687-0.716s-1.227,0.248-1.671,0.699c-0.911,0.924-0.911,2.426,0,3.35l11.507,11.671c0.43,0.437,1.014,0.677,1.643,0.677c0.062,0,0.124-0.002,0.186-0.007c0.075,0.016,0.166,0.029,0.271,0.029c0.163,0,0.294-0.033,0.367-0.053c0.126-0.016,0.262-0.046,0.39-0.088c0.122-0.044,0.204-0.078,0.287-0.121c0.233-0.109,0.447-0.256,0.625-0.438l34.247-34.183c0.916-0.929,0.916-2.432,0.006-3.355C85.478,30.66,84.885,30.412,84.252,30.412L84.252,30.412z"/>
    </symbol>
    <symbol id="checkbox-disabled" viewBox="0 0 100 100">
        <path d="M 29.960938 17.306641 C 22.792938 17.306641 16.960938 23.138641 16.960938 30.306641 L 16.960938 69.306641 C 16.960938 76.474641 22.792938 82.306641 29.960938 82.306641 L 68.960938 82.306641 C 76.128938 82.306641 81.960938 76.475641 81.960938 69.306641 L 81.960938 44.306641 C 81.960938 43.754641 81.512938 43.306641 80.960938 43.306641 C 80.408937 43.306641 79.960938 43.754641 79.960938 44.306641 L 79.960938 69.306641 C 79.960938 75.371641 75.025937 80.306641 68.960938 80.306641 L 29.960938 80.306641 C 23.895937 80.306641 18.960938 75.371641 18.960938 69.306641 L 18.960938 30.306641 C 18.960938 24.241641 23.895937 19.306641 29.960938 19.306641 L 68.960938 19.306641 C 75.025937 19.306641 79.960938 24.241641 79.960938 30.306641 C 79.960938 30.858641 80.408937 31.306641 80.960938 31.306641 C 81.512938 31.306641 81.960938 30.858641 81.960938 30.306641 C 81.960938 23.138641 76.128938 17.306641 68.960938 17.306641 L 29.960938 17.306641 z M 32.798828 22.306641 C 26.822828 22.306641 21.960938 27.168531 21.960938 33.144531 L 21.960938 66.470703 C 21.960937 72.446703 26.822828 77.306641 32.798828 77.306641 L 66.123047 77.306641 C 72.098047 77.306641 76.960938 72.446703 76.960938 66.470703 L 76.960938 62.806641 C 76.960938 62.530641 76.736937 62.306641 76.460938 62.306641 C 76.184937 62.306641 75.960938 62.530641 75.960938 62.806641 L 75.960938 66.470703 C 75.960938 71.894703 71.547047 76.306641 66.123047 76.306641 L 32.798828 76.306641 C 27.374828 76.306641 22.960938 71.894703 22.960938 66.470703 L 22.960938 33.144531 C 22.960937 27.720531 27.374828 23.306641 32.798828 23.306641 L 66.460938 23.306641 C 66.736938 23.306641 66.960938 23.082641 66.960938 22.806641 C 66.960938 22.530641 66.736937 22.306641 66.460938 22.306641 L 32.798828 22.306641 z M 84.251953 30.412109 C 83.618953 30.412109 83.024078 30.660328 82.580078 31.111328 L 49.455078 63.951172 L 39.751953 53.644531 C 39.291953 53.177531 38.697453 52.927734 38.064453 52.927734 C 37.431453 52.927734 36.836578 53.175953 36.392578 53.626953 C 35.481578 54.550953 35.481578 56.052562 36.392578 56.976562 L 47.900391 68.648438 C 48.330391 69.085437 48.913969 69.324219 49.542969 69.324219 C 49.604969 69.324219 49.666516 69.323359 49.728516 69.318359 C 49.803516 69.334359 49.895 69.347656 50 69.347656 C 50.163 69.347656 50.294188 69.314922 50.367188 69.294922 C 50.493187 69.278922 50.629812 69.247078 50.757812 69.205078 C 50.879812 69.161078 50.961922 69.128937 51.044922 69.085938 C 51.277922 68.976938 51.491922 68.828484 51.669922 68.646484 L 85.916016 34.464844 C 86.832016 33.535844 86.831875 32.032375 85.921875 31.109375 C 85.477875 30.660375 84.884953 30.412109 84.251953 30.412109 z M 84.251953 31.412109 C 84.599953 31.412109 84.946937 31.5455 85.210938 31.8125 C 85.737938 32.3475 85.737937 33.222812 85.210938 33.757812 L 50.957031 67.947266 C 50.849031 68.057266 50.72475 68.132359 50.59375 68.193359 C 50.54575 68.217359 50.497266 68.237859 50.447266 68.255859 C 50.362266 68.283859 50.2755 68.299547 50.1875 68.310547 C 50.1235 68.319547 50.066 68.349609 50 68.349609 C 49.929 68.349609 49.868781 68.319594 49.800781 68.308594 C 49.795781 68.307594 49.790156 68.307641 49.785156 68.306641 C 49.705156 68.319641 49.623969 68.326172 49.542969 68.326172 C 49.203969 68.326172 48.868328 68.208266 48.611328 67.947266 L 37.103516 56.275391 C 36.576516 55.740391 36.576516 54.865078 37.103516 54.330078 C 37.367516 54.063078 37.7145 53.929688 38.0625 53.929688 C 38.4105 53.929688 38.757484 54.063078 39.021484 54.330078 L 49.431641 65.384766 L 83.292969 31.8125 C 83.556969 31.5445 83.903953 31.412109 84.251953 31.412109 z M 76.460938 52.306641 C 76.184937 52.306641 75.960938 52.530641 75.960938 52.806641 L 75.960938 54.806641 C 75.960938 55.082641 76.184938 55.306641 76.460938 55.306641 C 76.736938 55.306641 76.960938 55.082641 76.960938 54.806641 L 76.960938 52.806641 C 76.960938 52.530641 76.736937 52.306641 76.460938 52.306641 z M 76.460938 56.306641 C 76.184937 56.306641 75.960938 56.530641 75.960938 56.806641 L 75.960938 60.806641 C 75.960938 61.082641 76.184938 61.306641 76.460938 61.306641 C 76.736938 61.306641 76.960938 61.082641 76.960938 60.806641 L 76.960938 56.806641 C 76.960938 56.530641 76.736937 56.306641 76.460938 56.306641 z"/>
    </symbol>
    <symbol id="close" viewBox="0 0 32 32">
        <path d="M24.7071 8.70711C25.0976 8.31658 25.0976 7.68342 24.7071 7.29289C24.3166 6.90237 23.6834 6.90237 23.2929 7.29289L16 14.5858L8.70711 7.29289C8.31658 6.90237 7.68342 6.90237 7.29289 7.29289C6.90237 7.68342 6.90237 8.31658 7.29289 8.70711L14.5858 16L7.29289 23.2929C6.90237 23.6834 6.90237 24.3166 7.29289 24.7071C7.68342 25.0976 8.31658 25.0976 8.70711 24.7071L16 17.4142L23.2929 24.7071C23.6834 25.0976 24.3166 25.0976 24.7071 24.7071C25.0976 24.3166 25.0976 23.6834 24.7071 23.2929L17.4142 16L24.7071 8.70711Z"
              fill="currentColor"/>
    </symbol>
    <symbol id="delete" viewBox="0 0 62 62">
        <path d="M 12 8 L 8 12 L 24.666016 32 L 8 52 L 12 56 L 32 39.333984 L 52 56 L 56 52 L 39.333984 32 L 56 12 L 52 8 L 32 24.666016 L 12 8 z"
              fill="currentColor"/>
    </symbol>
    <symbol id="qr" viewBox="0 0 24 24">
        <path d="M4,4H10V10H4V4M20,4V10H14V4H20M14,15H16V13H14V11H16V13H18V11H20V13H18V15H20V18H18V20H16V18H13V20H11V16H14V15M16,15V18H18V15H16M4,20V14H10V20H4M6,6V8H8V6H6M16,6V8H18V6H16M6,16V18H8V16H6M4,11H6V13H4V11M9,11H13V15H11V13H9V11M11,6H13V10H11V6M2,2V6H0V2A2,2 0 0,1 2,0H6V2H2M22,0A2,2 0 0,1 24,2V6H22V2H18V0H22M2,18V22H6V24H2A2,2 0 0,1 0,22V18H2M22,22V18H24V22A2,2 0 0,1 22,24H18V22H22Z"
              fill="currentColor"/>
    </symbol>
</svg>