<svg xmlns="http://www.w3.org/2000/svg">
    <symbol id="login" viewBox="0 0 24 24">
        <path fill-rule="evenodd"
              d="M6.75 2.25C4.67893 2.25 3 3.92893 3 6V18C3 20.0711 4.67893 21.75 6.75 21.75H12.75C14.8211 21.75 16.5 20.0711 16.5 18V17C16.5 16.5858 16.1642 16.25 15.75 16.25C15.3358 16.25 15 16.5858 15 17V18C15 19.2426 13.9926 20.25 12.75 20.25H6.75C5.50736 20.25 4.5 19.2426 4.5 18V6C4.5 4.75736 5.50736 3.75 6.75 3.75H12.75C13.9926 3.75 15 4.75736 15 6V7C15 7.41421 15.3358 7.75 15.75 7.75C16.1642 7.75 16.5 7.41421 16.5 7V6C16.5 3.92893 14.8211 2.25 12.75 2.25H6.75ZM11.7803 9.53033C12.0732 9.23744 12.0732 8.76256 11.7803 8.46967C11.4874 8.17678 11.0126 8.17678 10.7197 8.46967L7.71967 11.4697C7.42678 11.7626 7.42678 12.2374 7.71967 12.5303L10.7197 15.5303C11.0126 15.8232 11.4874 15.8232 11.7803 15.5303C12.0732 15.2374 12.0732 14.7626 11.7803 14.4697L10.0607 12.75H20.25C20.6642 12.75 21 12.4142 21 12C21 11.5858 20.6642 11.25 20.25 11.25H10.0607L11.7803 9.53033Z"
              fill="currentColor"/>
    </symbol>
    <symbol id="checkbox-active" viewBox="0 0 100 100">
        <path fill="#a1d3a2"
              d="M80.961,44.307v25c0,6.6-5.4,12-12,12h-39c-6.6,0-12-5.4-12-12v-39c0-6.6,5.4-12,12-12h39c6.6,0,12,5.4,12,12"/>
        <path fill="#1f212b"
              d="M68.961,82.307h-39c-7.168,0-13-5.832-13-13v-39c0-7.168,5.832-13,13-13h39c7.168,0,13,5.832,13,13c0,0.552-0.448,1-1,1s-1-0.448-1-1c0-6.065-4.935-11-11-11h-39c-6.065,0-11,4.935-11,11v39c0,6.065,4.935,11,11,11h39c6.065,0,11-4.935,11-11v-25c0-0.552,0.448-1,1-1s1,0.448,1,1v25C81.961,76.476,76.129,82.307,68.961,82.307z"/>
        <path fill="#a1d3a2"
              d="M76.461,62.807v3.663c0,5.685-4.652,10.337-10.337,10.337H32.798c-5.685,0-10.337-4.652-10.337-10.337V33.144c0-5.685,4.652-10.337,10.337-10.337h33.663"/>
        <path fill="#1f212b"
              d="M66.124,77.307H32.798c-5.976,0-10.837-4.861-10.837-10.837V33.144c0-5.976,4.861-10.837,10.837-10.837h33.663c0.276,0,0.5,0.224,0.5,0.5s-0.224,0.5-0.5,0.5H32.798c-5.424,0-9.837,4.413-9.837,9.837V66.47c0,5.424,4.413,9.837,9.837,9.837h33.326c5.424,0,9.837-4.413,9.837-9.837v-3.663c0-0.276,0.224-0.5,0.5-0.5s0.5,0.224,0.5,0.5v3.663C76.961,72.446,72.099,77.307,66.124,77.307z"/>
        <path fill="#1f212b"
              d="M76.461 61.307c-.276 0-.5-.224-.5-.5v-4c0-.276.224-.5.5-.5s.5.224.5.5v4C76.961 61.083 76.737 61.307 76.461 61.307zM76.461 55.307c-.276 0-.5-.224-.5-.5v-2c0-.276.224-.5.5-.5s.5.224.5.5v2C76.961 55.083 76.737 55.307 76.461 55.307z"/>
        <path fill="#00ac9c"
              d="M85.211,33.758L50.957,67.947c-0.108,0.11-0.233,0.186-0.364,0.247c-0.048,0.024-0.095,0.044-0.145,0.062c-0.085,0.028-0.172,0.043-0.26,0.054c-0.064,0.009-0.122,0.039-0.188,0.039c-0.071,0-0.131-0.03-0.199-0.041c-0.005-0.001-0.011,0-0.016-0.001c-0.416,0.068-0.854-0.036-1.173-0.359L37.104,56.275c-0.527-0.535-0.527-1.41,0-1.946c0.527-0.535,1.391-0.535,1.918,0l10.409,11.055l33.861-33.572c0.527-0.535,1.391-0.535,1.918,0C85.738,32.348,85.738,33.223,85.211,33.758z"/>
        <path fill="#1f212b"
              d="M84.252,31.412c0.348,0,0.695,0.134,0.959,0.401c0.527,0.535,0.527,1.41,0,1.945L50.957,67.947c-0.108,0.11-0.233,0.186-0.364,0.247c-0.048,0.024-0.095,0.044-0.145,0.062c-0.085,0.028-0.172,0.043-0.26,0.054c-0.064,0.009-0.122,0.039-0.188,0.039c-0.071,0-0.131-0.03-0.199-0.041c-0.005-0.001-0.011,0-0.016-0.001c-0.08,0.013-0.161,0.02-0.242,0.02c-0.339,0-0.674-0.118-0.931-0.379L37.104,56.275c-0.527-0.535-0.527-1.41,0-1.945c0.264-0.267,0.611-0.401,0.959-0.401s0.695,0.134,0.959,0.401l10.409,11.055l33.861-33.572C83.556,31.545,83.904,31.412,84.252,31.412 M84.252,30.412c-0.633,0-1.227,0.248-1.671,0.699L49.456,63.952l-9.705-10.308c-0.46-0.467-1.054-0.716-1.687-0.716s-1.227,0.248-1.671,0.699c-0.911,0.924-0.911,2.426,0,3.35l11.507,11.671c0.43,0.437,1.014,0.677,1.643,0.677c0.062,0,0.124-0.002,0.186-0.007c0.075,0.016,0.166,0.029,0.271,0.029c0.163,0,0.294-0.033,0.367-0.053c0.126-0.016,0.262-0.046,0.39-0.088c0.122-0.044,0.204-0.078,0.287-0.121c0.233-0.109,0.447-0.256,0.625-0.438l34.247-34.183c0.916-0.929,0.916-2.432,0.006-3.355C85.478,30.66,84.885,30.412,84.252,30.412L84.252,30.412z"/>
    </symbol>
    <symbol id="checkbox-disabled" viewBox="0 0 100 100">
        <path d="M 29.960938 17.306641 C 22.792938 17.306641 16.960938 23.138641 16.960938 30.306641 L 16.960938 69.306641 C 16.960938 76.474641 22.792938 82.306641 29.960938 82.306641 L 68.960938 82.306641 C 76.128938 82.306641 81.960938 76.475641 81.960938 69.306641 L 81.960938 44.306641 C 81.960938 43.754641 81.512938 43.306641 80.960938 43.306641 C 80.408937 43.306641 79.960938 43.754641 79.960938 44.306641 L 79.960938 69.306641 C 79.960938 75.371641 75.025937 80.306641 68.960938 80.306641 L 29.960938 80.306641 C 23.895937 80.306641 18.960938 75.371641 18.960938 69.306641 L 18.960938 30.306641 C 18.960938 24.241641 23.895937 19.306641 29.960938 19.306641 L 68.960938 19.306641 C 75.025937 19.306641 79.960938 24.241641 79.960938 30.306641 C 79.960938 30.858641 80.408937 31.306641 80.960938 31.306641 C 81.512938 31.306641 81.960938 30.858641 81.960938 30.306641 C 81.960938 23.138641 76.128938 17.306641 68.960938 17.306641 L 29.960938 17.306641 z M 32.798828 22.306641 C 26.822828 22.306641 21.960938 27.168531 21.960938 33.144531 L 21.960938 66.470703 C 21.960937 72.446703 26.822828 77.306641 32.798828 77.306641 L 66.123047 77.306641 C 72.098047 77.306641 76.960938 72.446703 76.960938 66.470703 L 76.960938 62.806641 C 76.960938 62.530641 76.736937 62.306641 76.460938 62.306641 C 76.184937 62.306641 75.960938 62.530641 75.960938 62.806641 L 75.960938 66.470703 C 75.960938 71.894703 71.547047 76.306641 66.123047 76.306641 L 32.798828 76.306641 C 27.374828 76.306641 22.960938 71.894703 22.960938 66.470703 L 22.960938 33.144531 C 22.960937 27.720531 27.374828 23.306641 32.798828 23.306641 L 66.460938 23.306641 C 66.736938 23.306641 66.960938 23.082641 66.960938 22.806641 C 66.960938 22.530641 66.736937 22.306641 66.460938 22.306641 L 32.798828 22.306641 z M 84.251953 30.412109 C 83.618953 30.412109 83.024078 30.660328 82.580078 31.111328 L 49.455078 63.951172 L 39.751953 53.644531 C 39.291953 53.177531 38.697453 52.927734 38.064453 52.927734 C 37.431453 52.927734 36.836578 53.175953 36.392578 53.626953 C 35.481578 54.550953 35.481578 56.052562 36.392578 56.976562 L 47.900391 68.648438 C 48.330391 69.085437 48.913969 69.324219 49.542969 69.324219 C 49.604969 69.324219 49.666516 69.323359 49.728516 69.318359 C 49.803516 69.334359 49.895 69.347656 50 69.347656 C 50.163 69.347656 50.294188 69.314922 50.367188 69.294922 C 50.493187 69.278922 50.629812 69.247078 50.757812 69.205078 C 50.879812 69.161078 50.961922 69.128937 51.044922 69.085938 C 51.277922 68.976938 51.491922 68.828484 51.669922 68.646484 L 85.916016 34.464844 C 86.832016 33.535844 86.831875 32.032375 85.921875 31.109375 C 85.477875 30.660375 84.884953 30.412109 84.251953 30.412109 z M 84.251953 31.412109 C 84.599953 31.412109 84.946937 31.5455 85.210938 31.8125 C 85.737938 32.3475 85.737937 33.222812 85.210938 33.757812 L 50.957031 67.947266 C 50.849031 68.057266 50.72475 68.132359 50.59375 68.193359 C 50.54575 68.217359 50.497266 68.237859 50.447266 68.255859 C 50.362266 68.283859 50.2755 68.299547 50.1875 68.310547 C 50.1235 68.319547 50.066 68.349609 50 68.349609 C 49.929 68.349609 49.868781 68.319594 49.800781 68.308594 C 49.795781 68.307594 49.790156 68.307641 49.785156 68.306641 C 49.705156 68.319641 49.623969 68.326172 49.542969 68.326172 C 49.203969 68.326172 48.868328 68.208266 48.611328 67.947266 L 37.103516 56.275391 C 36.576516 55.740391 36.576516 54.865078 37.103516 54.330078 C 37.367516 54.063078 37.7145 53.929688 38.0625 53.929688 C 38.4105 53.929688 38.757484 54.063078 39.021484 54.330078 L 49.431641 65.384766 L 83.292969 31.8125 C 83.556969 31.5445 83.903953 31.412109 84.251953 31.412109 z M 76.460938 52.306641 C 76.184937 52.306641 75.960938 52.530641 75.960938 52.806641 L 75.960938 54.806641 C 75.960938 55.082641 76.184938 55.306641 76.460938 55.306641 C 76.736938 55.306641 76.960938 55.082641 76.960938 54.806641 L 76.960938 52.806641 C 76.960938 52.530641 76.736937 52.306641 76.460938 52.306641 z M 76.460938 56.306641 C 76.184937 56.306641 75.960938 56.530641 75.960938 56.806641 L 75.960938 60.806641 C 75.960938 61.082641 76.184938 61.306641 76.460938 61.306641 C 76.736938 61.306641 76.960938 61.082641 76.960938 60.806641 L 76.960938 56.806641 C 76.960938 56.530641 76.736937 56.306641 76.460938 56.306641 z"/>
    </symbol>
    <symbol id="close" viewBox="0 0 32 32">
        <path d="M24.7071 8.70711C25.0976 8.31658 25.0976 7.68342 24.7071 7.29289C24.3166 6.90237 23.6834 6.90237 23.2929 7.29289L16 14.5858L8.70711 7.29289C8.31658 6.90237 7.68342 6.90237 7.29289 7.29289C6.90237 7.68342 6.90237 8.31658 7.29289 8.70711L14.5858 16L7.29289 23.2929C6.90237 23.6834 6.90237 24.3166 7.29289 24.7071C7.68342 25.0976 8.31658 25.0976 8.70711 24.7071L16 17.4142L23.2929 24.7071C23.6834 25.0976 24.3166 25.0976 24.7071 24.7071C25.0976 24.3166 25.0976 23.6834 24.7071 23.2929L17.4142 16L24.7071 8.70711Z"
              fill="currentColor"/>
    </symbol>
    <symbol id="delete" viewBox="0 0 24 24">
        <path d="M 10.806641 2 C 10.289641 2 9.7956875 2.2043125 9.4296875 2.5703125 L 9 3 L 4 3 A 1.0001 1.0001 0 1 0 4 5 L 20 5 A 1.0001 1.0001 0 1 0 20 3 L 15 3 L 14.570312 2.5703125 C 14.205312 2.2043125 13.710359 2 13.193359 2 L 10.806641 2 z M 4.3652344 7 L 5.8925781 20.263672 C 6.0245781 21.253672 6.877 22 7.875 22 L 16.123047 22 C 17.121047 22 17.974422 21.254859 18.107422 20.255859 L 19.634766 7 L 4.3652344 7 z"
              fill="currentColor"/>
    </symbol>
    <symbol id="config" viewBox="0 0 50 50">
        <path d="M 32.21875 2.0625 L 31.4375 2.375 L 28.625 3.46875 L 27.84375 3.78125 L 28.03125 4.59375 L 28.625 7.59375 C 28.332031 7.886719 28.019531 8.230469 27.6875 8.59375 L 24.71875 7.9375 L 23.90625 7.75 L 23.59375 8.5 L 22.375 11.3125 L 22.0625 12.0625 L 22.75 12.53125 L 25.3125 14.25 C 25.28125 14.738281 25.285156 15.230469 25.3125 15.71875 L 22.6875 17.34375 L 21.96875 17.78125 L 22.28125 18.5625 L 23.375 21.375 L 23.6875 22.15625 L 24.5 21.96875 L 27.5 21.375 C 27.804688 21.738281 28.140625 22.066406 28.5 22.375 L 27.8125 25.375 L 27.625 26.1875 L 28.40625 26.53125 L 31.21875 27.71875 L 31.96875 28.03125 L 32.4375 27.34375 L 34.15625 24.78125 C 34.644531 24.8125 35.136719 24.808594 35.625 24.78125 L 37.25 27.4375 L 37.6875 28.125 L 38.46875 27.84375 L 42.0625 26.40625 L 41.875 25.59375 L 41.1875 22.3125 C 41.5625 21.996094 41.902344 21.65625 42.21875 21.28125 L 45.25 22.0625 L 46.09375 22.28125 L 46.40625 21.5 L 47.625 18.6875 L 47.96875 17.90625 L 47.21875 17.4375 L 44.59375 15.84375 C 44.625 15.355469 44.621094 14.863281 44.59375 14.375 L 47.21875 12.75 L 47.9375 12.3125 L 47.625 11.53125 L 46.53125 8.71875 L 46.21875 7.9375 L 45.375 8.125 L 42.3125 8.8125 C 42.007813 8.449219 41.671875 8.121094 41.3125 7.8125 L 41.96875 4.8125 L 42.15625 4 L 41.40625 3.6875 L 38.59375 2.46875 L 37.8125 2.15625 L 37.34375 2.875 L 35.75 5.40625 C 35.289063 5.359375 34.789063 5.402344 34.28125 5.4375 L 32.65625 2.78125 Z M 31.375 4.53125 L 32.84375 6.9375 L 33.21875 7.53125 L 33.90625 7.375 C 34.613281 7.21875 35.28125 7.304688 36.1875 7.40625 L 36.8125 7.46875 L 37.15625 6.9375 L 38.59375 4.65625 L 39.84375 5.1875 L 39.21875 7.875 L 39.0625 8.53125 L 39.625 8.90625 C 40.238281 9.34375 40.75 9.855469 41.1875 10.46875 L 41.5625 11.03125 L 42.21875 10.875 L 44.96875 10.25 L 45.46875 11.5 L 43.0625 12.9375 L 42.53125 13.28125 L 42.59375 13.90625 C 42.6875 14.742188 42.6875 15.445313 42.59375 16.28125 L 42.53125 16.90625 L 43.0625 17.25 L 45.4375 18.71875 L 44.9375 19.90625 L 42.15625 19.21875 L 41.46875 19.0625 L 41.09375 19.625 C 40.65625 20.238281 40.144531 20.75 39.53125 21.1875 L 39 21.5625 L 39.125 22.21875 L 39.75 25.1875 L 38.5 25.65625 L 37.0625 23.28125 L 36.71875 22.75 L 36.09375 22.8125 C 35.257813 22.90625 34.554688 22.90625 33.71875 22.8125 L 33.09375 22.75 L 32.78125 23.25 L 31.25 25.5625 L 29.96875 25 L 30.5625 22.3125 L 30.71875 21.6875 L 30.1875 21.28125 C 29.574219 20.84375 29.0625 20.332031 28.625 19.71875 L 28.25 19.1875 L 27.59375 19.3125 L 24.90625 19.875 L 24.4375 18.625 L 26.8125 17.15625 L 27.375 16.8125 L 27.28125 16.1875 C 27.1875 15.351563 27.1875 14.648438 27.28125 13.8125 L 27.375 13.21875 L 26.84375 12.875 L 24.53125 11.34375 L 25.0625 10.0625 L 27.78125 10.6875 L 28.375 10.8125 L 28.75 10.34375 C 29.320313 9.679688 29.90625 9.09375 30.40625 8.59375 L 30.78125 8.21875 L 30.6875 7.71875 L 30.125 5.03125 Z M 35 10 C 32.25 10 30 12.25 30 15 C 30 17.75 32.25 20 35 20 C 37.75 20 40 17.75 40 15 C 40 12.25 37.75 10 35 10 Z M 35 12 C 36.667969 12 38 13.332031 38 15 C 38 16.667969 36.667969 18 35 18 C 33.332031 18 32 16.667969 32 15 C 32 13.332031 33.332031 12 35 12 Z M 13.53125 20 L 13.40625 20.84375 L 12.90625 24.09375 C 12.363281 24.265625 11.839844 24.515625 11.34375 24.78125 L 7.90625 22.28125 L 4.40625 25.78125 L 4.875 26.46875 L 6.78125 29.21875 C 6.511719 29.753906 6.273438 30.289063 6.09375 30.8125 L 2.8125 31.40625 L 2 31.5625 L 2 36.4375 L 2.8125 36.59375 L 6.09375 37.1875 C 6.269531 37.734375 6.511719 38.246094 6.78125 38.75 L 4.8125 41.40625 L 4.28125 42.09375 L 7.78125 45.59375 L 8.46875 45.125 L 11.21875 43.21875 C 11.753906 43.488281 12.289063 43.726563 12.8125 43.90625 L 13.3125 47.15625 L 13.4375 48 L 18.34375 48 L 18.46875 47.1875 L 19.09375 43.90625 C 19.636719 43.734375 20.160156 43.484375 20.65625 43.21875 L 24.09375 45.71875 L 27.59375 42.21875 L 27.125 41.53125 L 25.125 38.75 C 25.386719 38.222656 25.636719 37.703125 25.8125 37.1875 L 29.1875 36.59375 L 30 36.4375 L 30 31.53125 L 25.78125 30.90625 C 25.609375 30.367188 25.390625 29.839844 25.125 29.34375 L 27.125 26.59375 L 27.59375 25.90625 L 27.03125 25.3125 L 24.71875 22.90625 L 24.125 22.28125 L 23.40625 22.78125 L 20.65625 24.78125 C 20.128906 24.519531 19.609375 24.269531 19.09375 24.09375 L 18.59375 20.84375 L 18.46875 20 Z M 15.25 22 L 16.75 22 L 17.3125 25.5625 L 17.875 25.75 C 18.773438 26.050781 19.613281 26.332031 20.28125 26.75 L 20.84375 27.09375 L 21.375 26.71875 L 23.875 24.90625 L 25 26.09375 L 23.1875 28.625 L 22.78125 29.15625 L 23.15625 29.71875 C 23.605469 30.4375 23.957031 31.269531 24.125 32.03125 L 24.28125 32.6875 L 24.9375 32.78125 L 28 33.25 L 28 34.78125 L 24.9375 35.3125 L 24.34375 35.40625 L 24.15625 35.96875 C 23.855469 36.867188 23.574219 37.707031 23.15625 38.375 L 22.78125 38.9375 L 23.1875 39.46875 L 25 42 L 23.875 43.09375 L 21.375 41.28125 L 20.84375 40.90625 L 20.28125 41.25 C 19.5625 41.699219 18.730469 42.050781 17.96875 42.21875 L 17.34375 42.375 L 17.21875 43.03125 L 16.6875 46 L 15.15625 46 L 14.59375 42.4375 L 14.03125 42.25 C 13.132813 41.949219 12.292969 41.667969 11.625 41.25 L 11.0625 40.90625 L 10.53125 41.28125 L 8 43 L 6.90625 41.90625 L 8.6875 39.5 L 9.125 38.9375 L 8.75 38.375 C 8.300781 37.65625 7.949219 36.855469 7.78125 36.09375 L 7.625 35.4375 L 6.96875 35.3125 L 4 34.78125 L 4 33.21875 L 6.96875 32.6875 L 7.5625 32.5625 L 7.75 32.03125 C 8.050781 31.132813 8.332031 30.292969 8.75 29.625 L 9.09375 29.0625 L 8.71875 28.53125 L 7 26 L 8.125 24.90625 L 10.625 26.71875 L 11.15625 27.09375 L 11.71875 26.75 C 12.4375 26.300781 13.269531 25.949219 14.03125 25.78125 L 14.6875 25.625 L 14.78125 24.96875 Z M 16 29 C 13.253906 29 11 31.253906 11 34 C 11 36.746094 13.253906 39 16 39 C 18.746094 39 21 36.746094 21 34 C 21 31.253906 18.746094 29 16 29 Z M 16 31 C 17.65625 31 19 32.34375 19 34 C 19 35.65625 17.65625 37 16 37 C 14.34375 37 13 35.65625 13 34 C 13 32.34375 14.34375 31 16 31 Z"
              fill="currentColor"/>
    </symbol>
    <symbol id="copy" viewBox="0 0 16 16">
        <path d="M0 6.75C0 5.784.784 5 1.75 5h1.5a.75.75 0 0 1 0 1.5h-1.5a.25.25 0 0 0-.25.25v7.5c0 .138.112.25.25.25h7.5a.25.25 0 0 0 .25-.25v-1.5a.75.75 0 0 1 1.5 0v1.5A1.75 1.75 0 0 1 9.25 16h-7.5A1.75 1.75 0 0 1 0 14.25Z"
              fill="currentColor"/>
        <path d="M5 1.75C5 .784 5.784 0 6.75 0h7.5C15.216 0 16 .784 16 1.75v7.5A1.75 1.75 0 0 1 14.25 11h-7.5A1.75 1.75 0 0 1 5 9.25Zm1.75-.25a.25.25 0 0 0-.25.25v7.5c0 .138.112.25.25.25h7.5a.25.25 0 0 0 .25-.25v-7.5a.25.25 0 0 0-.25-.25Z"
              fill="currentColor"/>
    </symbol>
    <symbol id="done" viewBox="0 0 48 48">
        <path fill="none" stroke="currentColor" stroke-linecap="round" stroke-linejoin="round" stroke-miterlimit="10"
              stroke-width="3"
              d="M14.6,34.6l4,4c0.8,0.8,2,0.8,2.8,0l21.3-21.3c0.8-0.8,0.8-2,0-2.8l-4.4-4.4c-0.8-0.8-2-0.8-2.8,0L32,13.6"/>
        <path fill="none" stroke="currentColor" stroke-linecap="round" stroke-linejoin="round" stroke-miterlimit="10"
              stroke-width="3" d="M28,17.6l-8,8l-5.3-5.3c-0.8-0.8-2-0.8-2.8,0l-4.4,4.4c-0.8,0.8-0.8,2,0,2.8l3.3,3.3"/>
    </symbol>
    <symbol id="arrow_slide" viewBox="0 0 24 24">
        <path d="M14.5303 18.5303C14.2374 18.8232 13.7626 18.8232 13.4697 18.5303L7.46967 12.5303C7.17678 12.2374 7.17678 11.7626 7.46967 11.4697L13.4697 5.46967C13.7626 5.17678 14.2374 5.17678 14.5303 5.46967C14.8232 5.76256 14.8232 6.23744 14.5303 6.53033L9.06066 12L14.5303 17.4697C14.8232 17.7626 14.8232 18.2374 14.5303 18.5303Z"
              fill="currentColor"/>
    </symbol>
    <symbol id="log" viewBox="0 0 548.291 548.291">
        <g>
            <path d="M486.201,196.124h-13.166V132.59c0-0.396-0.062-0.795-0.115-1.196c-0.021-2.523-0.825-5-2.552-6.963L364.657,3.677
		c-0.033-0.031-0.064-0.042-0.085-0.073c-0.63-0.707-1.364-1.292-2.143-1.795c-0.229-0.157-0.461-0.286-0.702-0.421
		c-0.672-0.366-1.387-0.671-2.121-0.892c-0.2-0.055-0.379-0.136-0.577-0.188C358.23,0.118,357.401,0,356.562,0H96.757
		C84.894,0,75.256,9.651,75.256,21.502v174.613H62.092c-16.971,0-30.732,13.756-30.732,30.733v159.812
		c0,16.968,13.761,30.731,30.732,30.731h13.164V526.79c0,11.854,9.638,21.501,21.501,21.501h354.776
		c11.853,0,21.501-9.647,21.501-21.501V417.392h13.166c16.966,0,30.729-13.764,30.729-30.731V226.854
		C516.93,209.872,503.167,196.124,486.201,196.124z M96.757,21.502h249.054v110.009c0,5.939,4.817,10.75,10.751,10.75h94.972v53.861
		H96.757V21.502z M317.816,303.427c0,47.77-28.973,76.746-71.558,76.746c-43.234,0-68.531-32.641-68.531-74.152
		c0-43.679,27.887-76.319,70.906-76.319C293.389,229.702,317.816,263.213,317.816,303.427z M82.153,377.79V232.085h33.073v118.039
		h57.944v27.66H82.153V377.79z M451.534,520.962H96.757v-103.57h354.776V520.962z M461.176,371.092
		c-10.162,3.454-29.402,8.209-48.641,8.209c-26.589,0-45.833-6.698-59.24-19.664c-13.396-12.535-20.75-31.568-20.529-52.967
		c0.214-48.436,35.448-76.108,83.229-76.108c18.814,0,33.292,3.688,40.431,7.139l-6.92,26.37
		c-7.999-3.457-17.942-6.268-33.942-6.268c-27.449,0-48.209,15.567-48.209,47.134c0,30.049,18.807,47.771,45.831,47.771
		c7.564,0,13.623-0.852,16.21-2.152v-30.488h-22.478v-25.723h54.258V371.092L461.176,371.092z" fill="currentColor"/>
            <path d="M212.533,305.37c0,28.535,13.407,48.64,35.452,48.64c22.268,0,35.021-21.186,35.021-49.5
		c0-26.153-12.539-48.655-35.237-48.655C225.504,255.854,212.533,277.047,212.533,305.37z" fill="currentColor"/>
        </g>
    </symbol>
</svg>